<?xml version="1.0" standalone="no"?>
<!DOCTYPE svg PUBLIC "-//W3C//DTD SVG 20010904//EN"
 "http://www.w3.org/TR/2001/REC-SVG-20010904/DTD/svg10.dtd">
<svg version="1.0" xmlns="http://www.w3.org/2000/svg"
 width="582.000000pt" height="582.000000pt" viewBox="0 0 582.000000 582.000000"
 preserveAspectRatio="xMidYMid meet">
<metadata>
Created by potrace 1.11, written by Peter Selinger 2001-2013
</metadata>
<g transform="translate(0.000000,582.000000) scale(0.100000,-0.100000)"
fill="#000000" stroke="none">
<path d="M18 5398 c11 -18 44 -76 75 -128 30 -52 67 -115 81 -140 15 -25 29
-53 33 -62 3 -10 9 -18 14 -18 5 0 9 -4 9 -9 0 -5 23 -49 51 -98 65 -111 86
-148 115 -200 13 -23 53 -92 89 -153 36 -61 65 -113 65 -116 0 -3 13 -25 30
-49 16 -24 30 -46 30 -49 0 -3 27 -51 60 -107 33 -55 60 -102 60 -104 0 -2 17
-32 38 -66 22 -35 50 -84 64 -109 28 -51 182 -317 282 -489 36 -62 66 -118 66
-122 0 -5 4 -9 8 -9 4 0 15 -15 23 -32 8 -18 66 -121 129 -228 62 -107 122
-211 133 -230 10 -19 21 -37 22 -38 2 -2 2 374 0 835 -2 461 -5 1044 -6 1296
l-2 457 -744 0 -745 0 20 -32z"/>
<path d="M1969 5421 c-3 -19 -16 -953 -34 -2506 -4 -308 -8 -615 -9 -683 -1
-68 0 -124 2 -126 2 -2 45 20 95 48 51 29 117 66 147 83 30 16 78 43 105 58
45 24 250 140 438 246 38 22 73 39 78 39 5 0 9 5 9 10 0 6 9 10 19 10 11 0 21
4 23 8 2 5 48 32 103 62 55 29 102 56 105 59 3 3 23 16 45 27 43 23 443 246
510 284 22 13 60 34 85 48 85 46 105 57 110 63 3 3 25 16 50 28 53 28 86 46
160 88 30 17 73 41 95 53 22 12 70 40 107 61 36 21 77 44 90 49 12 6 41 22 63
36 22 13 48 27 58 30 9 4 17 10 17 15 0 5 7 9 15 9 9 0 32 11 53 24 51 33 252
146 260 146 4 0 18 9 31 19 l24 18 -211 126 c-115 70 -225 136 -244 147 -18
11 -41 23 -50 26 -10 4 -18 10 -18 15 0 5 -6 9 -13 9 -7 0 -19 6 -25 13 -7 6
-16 12 -20 12 -4 0 -25 12 -47 26 -37 24 -315 190 -360 215 -11 6 -74 44 -140
84 -115 69 -145 87 -217 129 -18 10 -134 79 -258 153 -196 117 -471 281 -551
328 -41 24 -202 120 -219 131 -122 76 -480 285 -481 280z"/>
<path d="M3015 5420 c3 -5 11 -10 16 -10 5 0 26 -11 47 -23 20 -13 57 -35 82
-49 75 -42 123 -70 155 -89 17 -11 37 -22 45 -26 8 -4 64 -35 124 -70 60 -35
110 -63 111 -63 2 0 38 -20 79 -45 42 -25 79 -45 83 -45 4 0 14 -6 22 -14 9
-7 41 -27 72 -44 31 -16 137 -76 235 -133 99 -56 200 -114 226 -128 49 -27
261 -149 289 -166 9 -5 36 -21 60 -34 47 -25 224 -126 249 -142 8 -5 35 -20
60 -34 25 -14 68 -39 97 -55 60 -34 50 -41 123 90 30 52 57 97 60 100 4 3 17
27 31 53 13 26 28 57 34 67 5 11 13 20 17 20 5 0 8 6 8 14 0 8 7 22 16 30 8 9
13 16 10 16 -3 0 10 25 29 55 19 30 35 56 35 58 0 4 178 313 200 347 5 8 30
51 55 95 64 113 94 165 117 203 l20 32 -1407 0 c-935 0 -1404 -3 -1400 -10z"/>
<path d="M4288 2850 c-27 -17 -52 -30 -58 -30 -5 0 -10 -4 -10 -10 0 -5 -4
-10 -9 -10 -5 0 -57 -28 -116 -62 -58 -35 -121 -71 -138 -82 -18 -10 -207
-121 -422 -246 -214 -125 -406 -236 -425 -247 -131 -75 -236 -139 -242 -148
-4 -5 -8 -7 -8 -3 0 4 -25 -8 -55 -27 -30 -19 -56 -35 -58 -35 -3 0 -45 -24
-94 -54 -49 -29 -109 -64 -133 -78 -132 -74 -297 -172 -308 -183 -11 -10 0
-36 63 -146 74 -127 89 -153 136 -237 12 -20 30 -49 40 -63 10 -14 16 -28 13
-31 -2 -3 2 -11 11 -18 8 -7 15 -19 15 -26 0 -8 5 -14 10 -14 6 0 10 -4 10 -9
0 -7 64 -122 100 -181 11 -18 97 -168 137 -240 8 -14 23 -38 33 -55 10 -16 31
-52 46 -80 14 -27 35 -62 45 -77 11 -14 19 -30 19 -35 0 -5 5 -14 12 -21 9 -9
16 -2 32 28 28 53 403 702 413 715 4 6 17 28 28 50 11 22 32 59 48 81 15 23
27 47 27 53 0 6 5 11 10 11 6 0 10 4 10 10 0 5 51 99 114 207 62 109 152 266
200 348 47 83 90 157 96 165 5 8 22 38 38 65 63 110 77 135 147 255 40 69 83
143 95 165 13 22 31 54 41 70 11 17 22 37 26 45 3 8 21 39 40 68 18 29 33 55
33 57 0 3 11 23 25 45 14 22 22 40 18 40 -5 0 -29 -14 -55 -30z"/>
</g>
</svg>
