<svg xmlns="http://www.w3.org/2000/svg" viewBox="0 0 490.656 490.656">
  <path d="M487.536 216.467c-4.16-4.16-10.923-4.16-15.083 0L245.339 443.581 18.203 216.467c-4.16-4.16-10.923-4.16-15.083 0s-4.16 10.923 0 15.083l234.667 234.667c2.091 2.069 4.821 3.115 7.552 3.115s5.461-1.045 7.531-3.115L487.537 231.55c4.159-4.161 4.159-10.923-.001-15.083z"/>
  <path d="M487.536 24.445c-4.16-4.16-10.923-4.16-15.083 0L245.339 251.581 18.203 24.467c-4.16-4.16-10.923-4.16-15.083 0s-4.16 10.923 0 15.083l234.667 234.667c2.091 2.069 4.821 3.115 7.552 3.115s5.461-1.045 7.531-3.136L487.536 39.528c4.16-4.16 4.16-10.923 0-15.083z"/>
</svg>
